<?xml version="1.0" encoding="UTF-8"?>
<svg width="1080px" height="1080px" viewBox="0 0 1080 1080" version="1.1" xmlns="http://www.w3.org/2000/svg" xmlns:xlink="http://www.w3.org/1999/xlink">
    <title>A392742E-049C-4419-A1C5-EC032EB090D7@1.5x</title>
    <defs>
        <radialGradient cx="50%" cy="50%" fx="50%" fy="50%" r="99.7546012%" id="radialGradient-1">
            <stop stop-color="#35414A" offset="0%"></stop>
            <stop stop-color="#222A31" offset="100%"></stop>
        </radialGradient>
        <polygon id="path-2" points="0 0 1080 0 1080 1080 0 1080"></polygon>
    </defs>
    <g id="library" stroke="none" stroke-width="1" fill="none" fill-rule="evenodd">
        <g id="Placeholder-Images" transform="translate(-59.000000, -2813.000000)">
            <g id="🌀-1:1" transform="translate(59.000000, 2729.000000)">
                <g id="1:1-Image-Placeholder" transform="translate(0.000000, 84.000000)">
                    <g>
                        <mask id="mask-3" fill="white">
                            <use xlink:href="#path-2"></use>
                        </mask>
                        <use id="Mask" fill="url(#radialGradient-1)" xlink:href="#path-2"></use>
                        <g id="icon/neou" opacity="0.070405506" mask="url(#mask-3)" fill="#FFFFFF">
                            <g transform="translate(224.000000, 224.000000)" id="logo/neou">
                                <path d="M630.25,323.590181 C630.25,432.291694 565.019931,504.751391 510.304,546.390287 C455.497168,588.100985 400.005553,608.079757 391.297303,611.071487 L391.254883,610.987719 L390.030758,611.472379 C361.83348,622.601614 331.424293,628.25 299.651602,628.25 C285.507512,628.25 271.066482,627.095192 256.722411,624.827461 C116.40868,602.646776 2.25,472.464642 2.25,334.62368 L2.25,47.351795 L47.8092396,47.351795 L47.8092396,334.62368 C47.8092396,451.51655 144.793819,561.935316 263.988377,580.783214 C275.938739,582.673987 287.931521,583.631341 299.651602,583.631341 C346.489506,583.631341 389.200536,568.654741 423.173015,540.323059 C465.162902,505.301869 488.275823,454.131322 488.269763,396.223398 L488.269763,79.0641316 L437.420124,62.3224113 L437.420124,396.223398 C437.420124,439.304308 420.645986,477.012072 390.194379,502.405875 C359.07617,528.35614 317.140823,538.731459 272.090625,531.617125 C176.46349,516.502906 98.6649378,428.127206 98.6649378,334.62368 L98.6649378,46.9808205 L240.639115,0.25 L240.639115,283.770256 C240.639115,363.697311 293.682481,423.735346 375.765468,436.71347 C377.728915,437.018627 379.668122,437.222064 381.613389,437.425502 L383.601076,437.634923 L383.970737,436.737404 C389.212656,424.441394 391.860885,410.817057 391.860885,396.223398 L391.860885,0.25 L533.829002,46.9808205 L533.829002,396.223398 C533.829002,422.472836 529.889988,447.890573 522.133161,471.764578 L520.272735,477.514682 L524.381429,473.021104 C564.395749,429.365782 584.6847,379.08677 584.6847,323.590181 L584.6847,47.351795 L630.25,47.351795 L630.25,323.590181 Z M194.419022,283.718091 L194.419022,61.9482456 L143.771127,78.7083174 L143.771127,334.64546 C143.771127,406.072008 205.410539,476.222227 278.361376,487.811064 C285.133743,488.883661 291.86386,489.428947 298.364608,489.428947 L298.370644,489.428947 C315.132557,489.428947 330.54241,485.827659 344.165613,478.708973 L347.207746,477.115058 L343.857778,476.300125 C275.687437,459.695849 194.419022,412.813188 194.419022,283.718091 L194.419022,283.718091 Z"></path>
                            </g>
                        </g>
                    </g>
                </g>
            </g>
        </g>
    </g>
</svg>