<?xml version="1.0" encoding="UTF-8"?>
<svg width="134px" height="40px" viewBox="0 0 134 40" version="1.1" xmlns="http://www.w3.org/2000/svg" xmlns:xlink="http://www.w3.org/1999/xlink">
    <!-- Generator: sketchtool 62 (101010) - https://sketch.com -->
    <title>363642D8-B563-457E-B480-80813EDB8835</title>
    <desc>Created with sketchtool.</desc>
    <g id="Asset-Artboard-Page" stroke="none" stroke-width="1" fill="none" fill-rule="evenodd">
        <g id="footer-app-store-footer/logo/App-Store">
            <path d="M128.285714,39.5 L6,39.5 C4.48121694,39.5 3.10621694,38.8843915 2.1109127,37.8890873 C1.11560847,36.8937831 0.5,35.5187831 0.5,34 L0.5,6 C0.5,4.48121694 1.11560847,3.10621694 2.1109127,2.1109127 C3.10621694,1.11560847 4.48121694,0.5 6,0.5 L128.285714,0.5 C129.804497,0.5 131.179497,1.11560847 132.174802,2.1109127 C133.170106,3.10621694 133.785714,4.48121694 133.785714,6 L133.785714,34 C133.785714,35.5187831 133.170106,36.8937831 132.174802,37.8890873 C131.179497,38.8843915 129.804497,39.5 128.285714,39.5 Z" id="Rectangle-5-Copy" stroke="#222A31"></path>
            <g id="Download_on_the_App_Store_Badge_US-UK_RGB_blk_092917" transform="translate(15.500000, 8.000000)" fill="#FFFFFF" fill-rule="nonzero">
                <path d="M93.80617,2.10791 C95.0591,2.10791 95.81496,2.96391 95.81496,4.37791 L95.81496,4.688 L92.63527,4.688 L92.63527,4.7378 C92.607132,5.07194014 92.7212507,5.40244775 92.9495608,5.6480407 C93.1778709,5.89363365 93.4991879,6.03152392 93.83449,6.0278 C94.2692619,6.07999468 94.6924825,5.86433304 94.90578,5.4819 L95.76125,5.48193 C95.512057,6.33130948 94.6900989,6.88010304 93.81008,6.78466 C93.2096439,6.8005102 92.6325914,6.5516307 92.2320282,6.10405516 C91.8314651,5.65647963 91.6478864,5.05545594 91.73,4.46045 C91.6500674,3.86379048 91.8329582,3.26180373 92.2312908,2.81044696 C92.6296234,2.35909018 93.204202,2.10277675 93.80617,2.10791 Z M35.9290141,2.42859737 C36.6179463,2.85611193 37.0049629,3.63722505 36.92775,4.44434 C37.0064319,5.25232226 36.6197687,6.03495038 35.9302255,6.4633853 C35.2406824,6.89182022 34.3677476,6.89182022 33.6782045,6.4633853 C32.9886613,6.03495038 32.6019981,5.25232226 32.68068,4.44434 C32.6034671,3.63722505 32.9904837,2.85611193 33.6794159,2.42859737 C34.3683482,2.0010828 35.2400818,2.0010828 35.9290141,2.42859737 Z M55.4664426,2.4285182 C56.155426,2.85603936 56.5425036,3.63717225 56.46535,4.44434 C56.543932,5.25235119 56.1571979,6.03495719 55.4676205,6.46337324 C54.7780432,6.89178929 53.9050968,6.89178929 53.2155195,6.46337324 C52.5259421,6.03495719 52.139208,5.25235119 52.21779,4.44434 C52.1406364,3.63717225 52.527714,2.85603936 53.2166974,2.4285182 C53.9056808,2.00099704 54.7774592,2.00099704 55.4664426,2.4285182 Z M73.4783341,2.42859737 C74.1672663,2.85611193 74.5542829,3.63722505 74.47707,4.44434 C74.5557519,5.25232226 74.1690887,6.03495038 73.4795455,6.4633853 C72.7900024,6.89182022 71.9170676,6.89182022 71.2275245,6.4633853 C70.5379813,6.03495038 70.1513181,5.25232226 70.23,4.44434 C70.1527871,3.63722505 70.5398037,2.85611193 71.2287359,2.42859737 C71.9176682,2.0010828 72.7894018,2.0010828 73.4783341,2.42859737 Z M59.41457,2.10792 C60.54348,2.10792 61.1802,2.66992 61.1802,3.6211 L61.1802,6.69776 L60.32473,6.69776 L60.32473,6.06495 L60.25442,6.06495 C59.9638686,6.52707633 59.4471736,6.79716323 58.90188,6.77195 C58.5196161,6.81171181 58.1383711,6.68791066 57.8523958,6.43115244 C57.5664205,6.17439423 57.4024061,5.80864331 57.4009,5.42432 C57.4009,4.61377 58.00442,4.14649 59.0757,4.08008 L60.29543,4.00977 L60.29543,3.6211 C60.29543,3.14551 59.98098,2.87696 59.37356,2.87696 C58.87747,2.87696 58.53372,3.05909 58.43508,3.37745 L57.57473,3.37745 C57.66555,2.60401 58.39309,2.10792 59.41457,2.10792 Z M66.55324,0.437 L66.55324,6.69774 L65.70168,6.69774 L65.70168,5.98631 L65.63137,5.98631 C65.3427542,6.49073698 64.7980745,6.79335648 64.21731,6.77195 C63.0718,6.772 62.34816,5.87061 62.34816,4.44434 C62.34816,3.02149 63.07961,2.12012 64.2173,2.12012 C64.7917768,2.09365013 65.3298275,2.40147287 65.59816,2.91012 L65.66457,2.91012 L65.66457,0.437 L66.55324,0.437 Z M84.51516,1.07373 L84.51516,2.21533 L85.49075,2.21533 L85.49075,2.96387 L84.51516,2.96387 L84.51516,5.2793 C84.51516,5.75098 84.7095,5.95752 85.15188,5.95752 C85.2651356,5.95715754 85.3782775,5.95030966 85.49075,5.93701 L85.49075,6.67724 C85.3311595,6.70579072 85.1694656,6.72098004 85.00735,6.72265 C84.01907,6.72265 83.62551,6.37499 83.62551,5.50683 L83.62551,2.96383 L82.91067,2.96383 L82.91067,2.21529 L83.62551,2.21529 L83.62551,1.07373 L84.51516,1.07373 Z M30.9317613,1.54887182 C31.4756303,2.12319621 31.7332859,2.91114479 31.63381,3.69584 C31.63381,5.60209 30.60354,6.69784 28.82619,6.69784 L26.67092,6.69784 L26.67092,0.731 L28.82619,0.731 C29.6151366,0.674384181 30.3878923,0.974547428 30.9317613,1.54887182 Z M38.47073,2.19482 L39.27737,5.63082 L39.34378,5.63082 L40.26956,2.19482 L41.1221,2.19482 L42.04788,5.63082 L42.11819,5.63082 L42.92092,2.19482 L43.80959,2.19482 L42.57326,6.69775 L41.65139,6.69775 L40.72073,3.38134 L40.65042,3.38134 L39.72366,6.69775 L38.81057,6.69775 L37.56936,2.19482 L38.47073,2.19482 Z M47.11916,2.1079 C47.5629768,2.07453177 47.9978859,2.2447899 48.3010908,2.57060207 C48.6042957,2.89641424 48.7428931,3.34242376 48.67775,3.7827 L48.67775,6.6977 L47.78908,6.6977 L47.78908,4.00586 C47.78908,3.28223 47.47463,2.92236 46.8174,2.92236 C46.5163658,2.90833912 46.2242202,3.02648257 46.0175546,3.24581678 C45.810889,3.465151 45.710315,3.76380101 45.7422,4.06347 L45.7422,6.69775 L44.85353,6.69775 L44.85353,2.19482 L45.709,2.19482 L45.709,2.91015 L45.77541,2.91015 C46.0063449,2.38347794 46.5459729,2.06130747 47.11916,2.1079 Z M50.98244,0.437 L50.98244,6.69774 L50.09377,6.69774 L50.09377,0.437 L50.98244,0.437 Z M77.93508,2.1079 C78.3788968,2.07453177 78.8138059,2.2447899 79.1170108,2.57060207 C79.4202157,2.89641424 79.5588131,3.34242376 79.49367,3.7827 L79.49367,6.6977 L78.605,6.6977 L78.605,4.00586 C78.605,3.28223 78.29055,2.92236 77.63332,2.92236 C77.3322858,2.90833912 77.0401402,3.02648257 76.8334746,3.24581678 C76.626809,3.465151 76.526235,3.76380101 76.55812,4.06347 L76.55812,6.69775 L75.66945,6.69775 L75.66945,2.19482 L76.52492,2.19482 L76.52492,2.91015 L76.59133,2.91015 C76.8222649,2.38347794 77.3618929,2.06130747 77.93508,2.1079 Z M87.58547,0.437 L87.58547,2.91845 L87.65578,2.91845 C87.8978078,2.38716856 88.4468801,2.06458754 89.02878,2.11181 C89.4700766,2.08779728 89.8990983,2.26180371 90.1989893,2.58643385 C90.4988802,2.91106399 90.6384049,3.35250564 90.57956,3.79052 L90.57956,6.69775 L89.69,6.69775 L89.69,4.00975 C89.69,3.29051 89.355,2.92625 88.72711,2.92625 C88.417939,2.90089367 88.1133391,3.01329096 87.8947423,3.2333935 C87.6761456,3.45349605 87.5658419,3.75886031 87.59332,4.06785 L87.59332,6.69775 L86.70465,6.69775 L86.70461,0.437 L87.58547,0.437 Z M60.29543,4.66309 L59.19582,4.7334 C58.5757,4.7749 58.29445,4.98584 58.29445,5.38281 C58.29445,5.78808 58.64601,6.02392 59.12945,6.02392 C59.4156361,6.05288986 59.7013264,5.96447505 59.9211204,5.77891559 C60.1409144,5.59335613 60.2759916,5.32654106 60.29543,5.03955 L60.29543,4.66309 Z M34.80568,2.89747 C34.03322,2.89747 33.59868,3.46827 33.59868,4.44435 C33.59868,5.42824 34.03325,5.99464 34.80568,5.99464 C35.57522,5.99464 36.01369,5.42432 36.01369,4.44434 C36.01369,3.46827 35.5752,2.89747 34.80568,2.89747 Z M54.34279,2.89747 C53.57033,2.89747 53.13579,3.46827 53.13579,4.44435 C53.13579,5.42824 53.57036,5.99464 54.34279,5.99464 C55.11232,5.99464 55.5508,5.42432 55.5508,4.44434 C55.5508,3.46827 55.11231,2.89747 54.34279,2.89747 Z M72.355,2.89747 C71.58254,2.89747 71.148,3.46827 71.148,4.44435 C71.148,5.42824 71.58257,5.99464 72.355,5.99464 C73.12453,5.99464 73.563,5.42432 73.563,4.44434 C73.563,3.46827 73.12452,2.89747 72.355,2.89747 Z M64.46929,2.91846 C63.72121,2.91846 63.26613,3.49707 63.26613,4.44434 C63.26616,5.39942 63.71636,5.97413 64.46929,5.97413 C65.21829,5.97413 65.6812,5.39113 65.6812,4.44825 C65.6812,3.50977 65.21343,2.91846 64.46929,2.91846 Z M28.72267,1.57421 L27.59767,1.57421 L27.59767,5.854 L28.72267,5.854 C29.2864919,5.88770201 29.8354865,5.66555901 30.2172185,5.24925179 C30.5989505,4.83294457 30.7727796,4.26679442 30.69044,3.708 C30.766789,3.15152453 30.5904566,2.59004622 30.2096711,2.17713398 C29.8288856,1.76422175 29.2834957,1.5430863 28.72267,1.57421 Z M93.80126,2.86426 C93.490752,2.86035891 93.191828,2.98202124 92.9722963,3.20164888 C92.7527647,3.42127653 92.6312331,3.72025374 92.63527,4.03076 L94.90966,4.03076 C94.9323129,3.72516044 94.8248585,3.42420507 94.6137769,3.20205909 C94.4026954,2.97991311 94.1076175,2.85723623 93.80126,2.86426 Z" id="Combined-Shape"></path>
                <path d="M42.34719,13.34765 C44.645,13.34766 46.15969,15.16406 46.15969,17.96973 C46.15969,20.78321 44.65383,22.59082 42.38137,22.59082 C41.2067553,22.6522646 40.1003324,22.0370307 39.53274,21.00682 L39.48974,21.00682 L39.48974,25.4912 L37.63134,25.4912 L37.63134,13.44238 L39.4302,13.44238 L39.4302,14.94824 L39.46438,14.94824 C40.0571883,13.9244879 41.1648043,13.3095188 42.34719,13.34765 Z M52.312,13.34766 C54.60988,13.34766 56.12453,15.16406 56.12453,17.96973 C56.12453,20.78321 54.61867,22.59082 52.34621,22.59082 C51.1715953,22.6522646 50.0651724,22.0370307 49.49758,21.00682 L49.45458,21.00682 L49.45458,25.4912 L47.59618,25.4912 L47.59618,13.44238 L49.395,13.44238 L49.395,14.94824 L49.42918,14.94824 C50.0219926,13.9244885 51.1296128,13.3095231 52.312,13.34766 Z M65.65383,9.87104 C68.27783,9.87104 70.07668,11.34272 70.13723,13.4853 L68.26123,13.4853 C68.14893,12.24604 67.12451,11.498 65.62744,11.498 C64.13037,11.498 63.10596,12.25484 63.10596,13.3564 C63.10596,14.23433 63.76026,14.75093 65.36084,15.1464 L66.729,15.48234 C69.27685,16.08488 70.33545,17.10834 70.33545,18.92472 C70.33545,21.24796 68.48486,22.70304 65.5415,22.70304 C62.78759,22.70304 60.92822,21.28214 60.8081,19.03604 L62.71047,19.03613 C62.84817,20.26758 64.04447,21.07613 65.67922,21.07613 C67.24563,21.07613 68.37258,20.26754 68.37258,19.15718 C68.37258,18.19331 67.69289,17.61618 66.08352,17.22066 L64.47415,16.83296 C62.19388,16.28218 61.13528,15.21577 61.13528,13.4853 C61.13528,11.34272 63.00247,9.87104 65.65383,9.87104 Z M81.35895,13.33106 C83.98395,13.33106 85.65387,15.12106 85.65387,17.96973 C85.65387,20.82618 83.99274,22.6084 81.35895,22.6084 C78.72609,22.6084 77.065,20.82617 77.065,17.96973 C77.065,15.1211 78.74273,13.33106 81.35895,13.33106 Z M96.40774,13.33105 C98.91262,13.33105 100.48782,15.05175 100.48782,17.79687 L100.48782,18.43359 L94.09329,18.43359 L94.09329,18.54589 C94.0335874,19.2199216 94.2663316,19.8871194 94.7323199,20.3777699 C95.1983083,20.8684204 95.8526275,21.1352333 96.52884,21.11034 C97.4306823,21.1948396 98.2809431,20.6769777 98.61966,19.8369 L100.3843,19.83691 C100.1343,21.48046 98.53371,22.60839 96.48586,22.60839 C93.85207,22.60839 92.21731,20.84374 92.21731,18.01269 C92.21731,15.17285 93.86086,13.33105 96.40774,13.33105 Z M74.34621,11.2998 L74.34621,13.44238 L76.06789,13.44238 L76.06789,14.91406 L74.34621,14.91406 L74.34621,19.90527 C74.34621,20.68066 74.69094,21.04199 75.44777,21.04199 C75.6521614,21.0384259 75.8562221,21.0240726 76.0591,20.99899 L76.0591,22.46188 C75.7188283,22.5254596 75.3729708,22.5542545 75.02687,22.54782 C73.19387,22.54782 72.47902,21.85934 72.47902,20.10348 L72.47902,14.91406 L71.16262,14.91406 L71.16262,13.44238 L72.479,13.44238 L72.479,11.2998 L74.34621,11.2998 Z M31.99367,10.0781 L36.47707,22.4961 L34.438,22.4961 L33.30227,19.13965 L28.56887,19.13965 L27.43215,22.4961 L25.42727,22.4961 L29.91067,10.0781 L31.99367,10.0781 Z M91.17925,13.34764 C91.393414,13.3468922 91.6069872,13.3701507 91.81597,13.41698 L91.81597,15.15526 C91.545601,15.0726433 91.2635596,15.0347113 90.98097,15.04296 C90.4346182,15.0207954 89.9058709,15.2385347 89.5335615,15.639006 C89.161252,16.0394772 88.9825766,16.5826707 89.04445,17.12596 L89.04445,22.49608 L87.18605,22.49608 L87.18605,13.44238 L88.95852,13.44238 L88.95852,14.98338 L89.00152,14.98338 C89.248696,13.9913684 90.1576526,13.3086316 91.17925,13.34764 Z M81.35894,14.86231 C79.85308,14.86231 78.95855,16.02442 78.95855,17.96973 C78.95855,19.93164 79.85308,21.07618 81.35894,21.07618 C82.8648,21.07618 83.76031,19.93164 83.76031,17.96973 C83.76031,16.01563 82.8648,14.86231 81.35894,14.86231 Z M41.85695,14.93164 C40.43703,14.93164 39.48195,16.16211 39.48195,17.96973 C39.48195,19.79395 40.43703,21.01563 41.85695,21.01563 C43.30227,21.01563 44.24953,19.81934 44.24953,17.96973 C44.24953,16.13673 43.30226,14.93164 41.85695,14.93164 Z M51.82179,14.93164 C50.40187,14.93164 49.44679,16.16211 49.44679,17.96973 C49.44679,19.79395 50.40187,21.01563 51.82179,21.01563 C53.26711,21.01563 54.21438,19.81934 54.21438,17.96973 C54.21438,16.13673 53.2671,14.93164 51.82179,14.93164 Z M30.96149,12.14355 L30.90973,12.14355 L29.0591,17.59082 L32.8111,17.59082 L30.96149,12.14355 Z M96.40774,14.83691 C95.7964818,14.8332622 95.2090907,15.0739346 94.7761255,15.5054332 C94.3431603,15.9369319 94.1004963,16.5235029 94.1020624,17.13477 L98.62844,17.13477 C98.6621655,16.5290975 98.4416965,15.9368231 98.0201501,15.5006315 C97.5986036,15.06444 97.0142008,14.8238804 96.40774,14.83691 Z" id="Combined-Shape"></path>
                <path d="M13.8550052,5.97369613 L14.13428,5.99094 C15.730392,6.04087835 17.2095126,6.84051277 18.12544,8.14862 C16.6801229,9.03718611 15.790737,10.6042091 15.76888,12.30068 C15.7709432,14.2200343 16.9203766,15.9521813 18.68812,16.69985 C18.3481437,17.8042759 17.8356761,18.8479997 17.1697,19.79236 C16.27532,21.13026 15.33757,22.43734 13.84919,22.4615 C12.40298,22.49488 11.91695,21.6104 10.25819,21.6104 C8.58389,21.6104 8.06585,22.43735 6.67879,22.49488 C5.26134,22.54738 4.17806,21.06693 3.25116,19.74158 C1.39855,17.03497 -0.04404,12.11392 1.88996,8.7655 C2.79813717,7.13352548 4.49620126,6.09793842 6.36288,6.03763 C7.78161,6.00844 9.09911,6.99577 9.97138,6.99577 C10.82709,6.99577 12.45504,5.81468 14.13428,5.99094 Z M14.15177,0.72027 C14.248585,1.98450245 13.8487766,3.23668191 13.03725,4.21089 C12.2499161,5.19015322 11.0569368,5.75420677 9.80048,5.74127 C9.72057463,4.51343268 10.1320187,3.30418903 10.94419,2.37988 C11.7666802,1.44304968 12.9119378,0.850490487 14.15177,0.72027 Z" id="Combined-Shape"></path>
            </g>
        </g>
    </g>
</svg>