<?xml version="1.0" encoding="UTF-8"?>
<svg width="134px" height="40px" viewBox="0 0 134 40" version="1.1" xmlns="http://www.w3.org/2000/svg" xmlns:xlink="http://www.w3.org/1999/xlink">
    <!-- Generator: sketchtool 62 (101010) - https://sketch.com -->
    <title>2567E3B1-C70B-4BBB-916E-0669A07FCE2B</title>
    <desc>Created with sketchtool.</desc>
    <defs>
        <linearGradient x1="61.231376%" y1="4.8388%" x2="26.323984%" y2="71.9684%" id="linearGradient-1">
            <stop stop-color="#00A0FF" offset="0%"></stop>
            <stop stop-color="#00A1FF" offset="0.657445%"></stop>
            <stop stop-color="#00BEFF" offset="26.01%"></stop>
            <stop stop-color="#00D2FF" offset="51.22%"></stop>
            <stop stop-color="#00DFFF" offset="76.04%"></stop>
            <stop stop-color="#00E3FF" offset="100%"></stop>
        </linearGradient>
        <linearGradient x1="107.728079%" y1="49.4282353%" x2="-130.665025%" y2="49.4282353%" id="linearGradient-2">
            <stop stop-color="#FFE000" offset="0%"></stop>
            <stop stop-color="#FFBD00" offset="40.87%"></stop>
            <stop stop-color="#FFA500" offset="77.54%"></stop>
            <stop stop-color="#FF9C00" offset="100%"></stop>
        </linearGradient>
        <linearGradient x1="86.3892216%" y1="30.8297553%" x2="-49.888024%" y2="136.004321%" id="linearGradient-3">
            <stop stop-color="#FF3A44" offset="0%"></stop>
            <stop stop-color="#C31162" offset="100%"></stop>
        </linearGradient>
        <linearGradient x1="-18.5790419%" y1="-11.6823797%" x2="42.2748503%" y2="35.0643382%" id="linearGradient-4">
            <stop stop-color="#32A071" offset="0%"></stop>
            <stop stop-color="#2DA771" offset="6.85%"></stop>
            <stop stop-color="#15CF74" offset="47.62%"></stop>
            <stop stop-color="#06E775" offset="80.09%"></stop>
            <stop stop-color="#00F076" offset="100%"></stop>
        </linearGradient>
    </defs>
    <g id="Asset-Artboard-Page" stroke="none" stroke-width="1" fill="none" fill-rule="evenodd">
        <g id="footer-google-play-footer/logo/Google-Play">
            <path d="M128.285714,39.5 L6,39.5 C4.48121694,39.5 3.10621694,38.8843915 2.1109127,37.8890873 C1.11560847,36.8937831 0.5,35.5187831 0.5,34 L0.5,6 C0.5,4.48121694 1.11560847,3.10621694 2.1109127,2.1109127 C3.10621694,1.11560847 4.48121694,0.5 6,0.5 L128.285714,0.5 C129.804497,0.5 131.179497,1.11560847 132.174802,2.1109127 C133.170106,3.10621694 133.785714,4.48121694 133.785714,6 L133.785714,34 C133.785714,35.5187831 133.170106,36.8937831 132.174802,37.8890873 C131.179497,38.8843915 129.804497,39.5 128.285714,39.5 Z" id="Rectangle-5" stroke="#222A31"></path>
            <g id="google-play-badge" transform="translate(11.500000, 6.559999)" fill-rule="nonzero">
                <g id="Group" transform="translate(30.720001, 0.000000)" fill="#FFFFFF">
                    <path d="M6.14400024,4.03200016 C6.14400024,4.80000019 5.95200024,5.47200022 5.47200022,5.95200024 C4.89600019,6.52800026 4.22400017,6.81600027 3.36000013,6.81600027 C2.4960001,6.81600027 1.82400007,6.52800026 1.24800005,5.95200024 C0.672000027,5.37600021 0.384000015,4.70400019 0.384000015,3.84000015 C0.384000015,2.97600012 0.672000027,2.30400009 1.24800005,1.72800007 C1.82400007,1.15200005 2.4960001,0.864000034 3.36000013,0.864000034 C3.74400015,0.864000034 4.12800016,0.960000038 4.51200018,1.15200005 C4.89600019,1.34400005 5.18400021,1.53600006 5.37600021,1.82400007 L4.89600019,2.30400009 C4.51200018,1.82400007 4.03200016,1.63200006 3.36000013,1.63200006 C2.78400011,1.63200006 2.20800009,1.82400007 1.82400007,2.30400009 C1.34400005,2.68800011 1.15200005,3.26400013 1.15200005,3.93600016 C1.15200005,4.60800018 1.34400005,5.18400021 1.82400007,5.56800022 C2.30400009,5.95200024 2.78400011,6.24000025 3.36000013,6.24000025 C4.03200016,6.24000025 4.51200018,6.04800024 4.9920002,5.56800022 C5.28000021,5.28000021 5.47200022,4.89600019 5.47200022,4.41600018 L3.36000013,4.41600018 L3.36000013,3.74400015 L6.14400024,3.74400015 C6.14400024,3.74400015 6.14400024,3.93600016 6.14400024,4.03200016 Z" id="Path"></path>
                    <polygon id="Path" points="10.5600004 1.63200006 7.96800032 1.63200006 7.96800032 3.45600014 10.3680004 3.45600014 10.3680004 4.12800016 7.96800032 4.12800016 7.96800032 5.95200024 10.5600004 5.95200024 10.5600004 6.72000027 7.20000029 6.72000027 7.20000029 0.960000038 10.5600004 0.960000038"></polygon>
                    <polygon id="Path" points="13.7280005 6.72000027 12.9600005 6.72000027 12.9600005 1.63200006 11.3280005 1.63200006 11.3280005 0.960000038 15.3600006 0.960000038 15.3600006 1.63200006 13.7280005 1.63200006"></polygon>
                    <polygon id="Path" points="18.1440007 6.72000027 18.1440007 0.960000038 18.9120008 0.960000038 18.9120008 6.72000027"></polygon>
                    <polygon id="Path" points="22.1760009 6.72000027 21.4080009 6.72000027 21.4080009 1.63200006 19.7760008 1.63200006 19.7760008 0.960000038 23.7120009 0.960000038 23.7120009 1.63200006 22.0800009 1.63200006 22.0800009 6.72000027"></polygon>
                    <path d="M31.2960012,5.95200024 C30.7200012,6.52800026 30.0480012,6.81600027 29.1840012,6.81600027 C28.3200011,6.81600027 27.6480011,6.52800026 27.0720011,5.95200024 C26.4960011,5.37600021 26.208001,4.70400019 26.208001,3.84000015 C26.208001,2.97600012 26.4960011,2.30400009 27.0720011,1.72800007 C27.6480011,1.15200005 28.3200011,0.864000034 29.1840012,0.864000034 C30.0480012,0.864000034 30.7200012,1.15200005 31.2960012,1.72800007 C31.8720013,2.30400009 32.1600013,2.97600012 32.1600013,3.84000015 C32.1600013,4.70400019 31.8720013,5.37600021 31.2960012,5.95200024 Z M27.6480011,5.47200022 C28.0320011,5.85600023 28.6080011,6.14400024 29.1840012,6.14400024 C29.7600012,6.14400024 30.3360012,5.95200024 30.7200012,5.47200022 C31.1040012,5.0880002 31.3920012,4.51200018 31.3920012,3.84000015 C31.3920012,3.16800013 31.2000012,2.5920001 30.7200012,2.20800009 C30.3360012,1.82400007 29.7600012,1.53600006 29.1840012,1.53600006 C28.6080011,1.53600006 28.0320011,1.72800007 27.6480011,2.20800009 C27.2640011,2.5920001 26.9760011,3.16800013 26.9760011,3.84000015 C26.9760011,4.51200018 27.1680011,5.0880002 27.6480011,5.47200022 Z" id="Shape"></path>
                    <polygon id="Path" points="33.2160013 6.72000027 33.2160013 0.960000038 34.0800014 0.960000038 36.8640015 5.47200022 36.8640015 5.47200022 36.8640015 4.32000017 36.8640015 0.960000038 37.6320015 0.960000038 37.6320015 6.72000027 36.8640015 6.72000027 33.8880013 2.01600008 33.8880013 2.01600008 33.8880013 3.16800013 33.8880013 6.72000027"></polygon>
                </g>
                <path d="M56.7360023,15.1680006 C54.4320022,15.1680006 52.6080021,16.8960007 52.6080021,19.2960008 C52.6080021,21.6000009 54.4320022,23.4240009 56.7360023,23.4240009 C59.0400023,23.4240009 60.8640024,21.6960009 60.8640024,19.2960008 C60.8640024,16.8000007 59.0400023,15.1680006 56.7360023,15.1680006 Z M56.7360023,21.6960009 C55.4880022,21.6960009 54.4320022,20.6400008 54.4320022,19.2000008 C54.4320022,17.7600007 55.4880022,16.7040007 56.7360023,16.7040007 C57.9840023,16.7040007 59.0400023,17.6640007 59.0400023,19.2000008 C59.0400023,20.6400008 57.9840023,21.6960009 56.7360023,21.6960009 Z M47.8080019,15.1680006 C45.5040018,15.1680006 43.6800017,16.8960007 43.6800017,19.2960008 C43.6800017,21.6000009 45.5040018,23.4240009 47.8080019,23.4240009 C50.112002,23.4240009 51.9360021,21.6960009 51.9360021,19.2960008 C51.9360021,16.8000007 50.112002,15.1680006 47.8080019,15.1680006 Z M47.8080019,21.6960009 C46.5600019,21.6960009 45.5040018,20.6400008 45.5040018,19.2000008 C45.5040018,17.7600007 46.5600019,16.7040007 47.8080019,16.7040007 C49.0560019,16.7040007 50.112002,17.6640007 50.112002,19.2000008 C50.112002,20.6400008 49.0560019,21.6960009 47.8080019,21.6960009 Z M37.1520015,16.4160007 L37.1520015,18.1440007 L41.2800016,18.1440007 C41.1840016,19.1040008 40.8000016,19.8720008 40.3200016,20.3520008 C39.7440016,20.9280008 38.7840015,21.6000009 37.1520015,21.6000009 C34.5600014,21.6000009 32.6400013,19.5840008 32.6400013,16.9920007 C32.6400013,14.4000006 34.6560014,12.3840005 37.1520015,12.3840005 C38.4960015,12.3840005 39.5520016,12.9600005 40.3200016,13.6320005 L41.5680017,12.3840005 C40.5120016,11.4240005 39.1680016,10.6560004 37.2480015,10.6560004 C33.7920013,10.6560004 30.8160012,13.5360005 30.8160012,16.9920007 C30.8160012,20.4480008 33.7920013,23.3280009 37.2480015,23.3280009 C39.1680016,23.3280009 40.5120016,22.7520009 41.6640017,21.5040009 C42.8160012,20.3520008 43.2000017,18.7200007 43.2000017,17.4720007 C43.2000017,17.0880007 43.2000017,16.7040007 43.1040017,16.4160007 L37.1520015,16.4160007 L37.1520015,16.4160007 Z M80.7360032,17.7600007 C80.3520032,16.8000007 79.3920032,15.1680006 77.2800031,15.1680006 C75.168003,15.1680006 73.4400029,16.8000007 73.4400029,19.2960008 C73.4400029,21.6000009 75.168003,23.4240009 77.4720031,23.4240009 C79.2960032,23.4240009 80.4480032,22.2720009 80.8320032,21.6000009 L79.4880032,20.6400008 C79.0080031,21.3120008 78.4320031,21.7920009 77.4720031,21.7920009 C76.512003,21.7920009 75.936003,21.4080009 75.456003,20.5440008 L80.9280032,18.2400007 L80.7360032,17.7600007 Z M75.168003,19.1040008 C75.168003,17.5680007 76.416003,16.7040007 77.2800031,16.7040007 C77.9520031,16.7040007 78.6240031,17.0880007 78.8160031,17.5680007 L75.168003,19.1040008 Z M70.6560028,23.0400004 L72.4800029,23.0400004 L72.4800029,11.0400004 L70.6560028,11.0400004 L70.6560028,23.0400004 Z M67.7760027,16.0320006 L67.7760027,16.0320006 C67.2960027,15.5520006 66.5280026,15.0720006 65.5680026,15.0720006 C63.5520025,15.0720006 61.6320024,16.8960007 61.6320024,19.2000008 C61.6320024,21.5040009 63.4560025,23.2320009 65.5680026,23.2320009 C66.5280026,23.2320009 67.2960027,22.7520009 67.6800027,22.2720009 L67.7760027,22.2720009 L67.7760027,22.8480009 C67.7760027,24.384001 66.9120027,25.248001 65.5680026,25.248001 C64.5120026,25.248001 63.7440025,24.480001 63.5520025,23.8080009 L62.0160025,24.480001 C62.4960025,25.536001 63.6480025,26.8800011 65.6640026,26.8800011 C67.7760027,26.8800011 69.5040028,25.632001 69.5040028,22.6560009 L69.5040028,15.3600006 L67.7760027,15.3600006 L67.7760027,16.0320006 L67.7760027,16.0320006 Z M65.6640026,21.6960009 C64.4160026,21.6960009 63.3600025,20.6400008 63.3600025,19.2000008 C63.3600025,17.7600007 64.4160026,16.7040007 65.6640026,16.7040007 C66.9120027,16.7040007 67.8720027,17.7600007 67.8720027,19.2000008 C67.8720027,20.6400008 66.9120027,21.6960009 65.6640026,21.6960009 Z M89.0880035,11.0400004 L84.7680034,11.0400004 L84.7680034,23.0400004 L86.5920034,23.0400004 L86.5920034,18.5280007 L89.0880035,18.5280007 C91.1040036,18.5280007 93.0240037,17.0880007 93.0240037,14.7840006 C93.0240037,12.4800005 91.1040036,11.0400004 89.0880035,11.0400004 Z M89.1840035,16.8000007 L86.5920034,16.8000007 L86.5920034,12.6720005 L89.1840035,12.6720005 C90.5280036,12.6720005 91.2960036,13.8240005 91.2960036,14.6880006 C91.2000036,15.7440006 90.4320036,16.8000007 89.1840035,16.8000007 Z M100.224004,15.0720006 C98.8800039,15.0720006 97.5360039,15.6480006 97.0560039,16.8960007 L98.6880039,17.5680007 C99.0720039,16.8960007 99.648004,16.7040007 100.320004,16.7040007 C101.280004,16.7040007 102.144004,17.2800007 102.240004,18.2400007 L102.240004,18.3360007 C101.952004,18.1440007 101.184004,17.8560007 100.416004,17.8560007 C98.6880039,17.8560007 96.9600039,18.8160007 96.9600039,20.5440008 C96.9600039,22.1760009 98.4000039,23.2320009 99.936004,23.2320009 C101.184004,23.2320009 101.760004,22.6560009 102.240004,22.0800009 L102.336004,22.0800009 L102.336004,23.0400009 L104.064004,23.0400009 L104.064004,18.4320007 C103.872004,16.3200006 102.240004,15.0720006 100.224004,15.0720006 Z M100.032004,21.6960009 C99.456004,21.6960009 98.5920039,21.4080009 98.5920039,20.6400008 C98.5920039,19.6800008 99.648004,19.3920008 100.512004,19.3920008 C101.280004,19.3920008 101.664004,19.5840008 102.144004,19.7760008 C101.952004,20.9280008 100.992004,21.6960009 100.032004,21.6960009 Z M110.112004,15.3600006 L108.096004,20.5440008 L108.000004,20.5440008 L105.888004,15.3600006 L103.968004,15.3600006 L107.136004,22.6560009 L105.312004,26.6880011 L107.136004,26.6880011 L112.032004,15.3600006 L110.112004,15.3600006 Z M93.9840037,23.0400004 L95.8080038,23.0400004 L95.8080038,11.0400004 L93.9840037,11.0400004 L93.9840037,23.0400004 Z" id="Shape" fill="#FFFFFF"></path>
                <g id="Group" transform="translate(0.000000, 0.960000)">
                    <path d="M1.34400005,0.480000019 C1.05600004,0.768000031 0.864000034,1.24800005 0.864000034,1.82400007 L0.864000034,23.0400009 C0.864000034,23.6160009 1.05600004,24.096001 1.34400005,24.384001 L1.44000006,24.48 L13.3440005,12.5760005 L13.3440005,12.48 L13.3440005,12.3840005 L1.34400005,0.480000019 L1.34400005,0.480000019 Z" id="Path" fill="url(#linearGradient-1)"></path>
                    <path d="M17.2800007,16.6080007 L13.3440005,12.6720005 L13.3440005,12.4800005 L13.3440005,12.3840005 L17.2800007,8.44800034 L17.3760007,8.54400034 L22.0800009,11.2320004 C23.4240009,12.0000005 23.4240009,13.2480005 22.0800009,14.0160006 L17.2800007,16.6080007 L17.2800007,16.6080007 Z" id="Path" fill="url(#linearGradient-2)"></path>
                    <path d="M17.3760007,16.5120007 L13.3440001,12.4800005 L1.34400005,24.4800005 C1.82400007,24.960001 2.4960001,24.960001 3.36000013,24.576001 L17.3760007,16.5120007" id="Path" fill="url(#linearGradient-3)"></path>
                    <path d="M17.3760007,8.44800034 L3.36000013,0.480000019 C2.4960001,1.11022302e-16 1.82400007,0.0960000038 1.34400005,0.576000023 L13.3440001,12.4800005 L17.3760007,8.44800034 Z" id="Path" fill="url(#linearGradient-4)"></path>
                    <g transform="translate(0.000000, 16.320001)" fill="#000000" id="Path">
                        <path d="M17.2800007,0.0960000038 L3.36000013,7.96800032 C2.5920001,8.44800034 1.92000008,8.35200033 1.44000006,7.96800032 L1.44000006,7.96800032 L1.34400005,8.06400032 L1.34400005,8.06400032 L1.44000006,8.16000032 L1.44000006,8.16000032 C1.92000008,8.54400034 2.5920001,8.64000034 3.36000013,8.16000032 L17.2800007,0.0960000038 L17.2800007,0.0960000038 Z" opacity="0.2"></path>
                        <path d="M1.34400005,7.96800032 C1.05600004,7.68000031 0.960000038,7.20000029 0.960000038,6.62400026 L0.960000038,6.72000027 C0.960000038,7.29600029 1.15200005,7.77600031 1.44000006,8.06400032 L1.44000006,7.96800032 L1.34400005,7.96800032 Z" opacity="0.12"></path>
                    </g>
                    <path d="M22.0800009,13.7280005 L17.2800007,16.4160007 L17.3760007,16.5120007 L22.0800009,13.8240005 C22.7520009,13.4400005 23.0400009,12.9600005 23.0400009,12.4800005 L23.0400009,12.4800005 C23.0400009,12.9600005 22.6560009,13.3440005 22.0800009,13.7280005 Z" id="Path" fill="#000000" opacity="0.12"></path>
                    <path d="M3.36000013,0.576000023 L22.0800009,11.2320004 C22.6560009,11.6160005 23.0400009,12.0000005 23.0400009,12.4800005 L23.0400009,12.4800005 C23.0400009,12.0000005 22.7520009,11.5200005 22.0800009,11.1360004 L3.36000013,0.480000019 C2.01600008,-0.288000011 0.960000038,0.384000015 0.960000038,1.92000008 L0.960000038,2.01600008 C0.960000038,0.480000019 2.01600008,-0.192000008 3.36000013,0.576000023 Z" id="Path" fill="#FFFFFF" opacity="0.25"></path>
                </g>
            </g>
        </g>
    </g>
</svg>